<?xml version="1.0" encoding="UTF-8"?>
<!DOCTYPE svg PUBLIC "-//W3C//DTD SVG 1.1//EN" "http://www.w3.org/Graphics/SVG/1.1/DTD/svg11.dtd">
<svg version="1.1" xmlns="http://www.w3.org/2000/svg" xmlns:xlink="http://www.w3.org/1999/xlink" x="0" y="0" width="660" height="660" viewBox="0, 0, 660, 660">
  <g id="Layer_1">
    <path d="M-0,0.742 L659.26,0.742 L659.26,659.94 L-0,659.94 z" fill="#3799B8"/>
    <path d="M92.436,101.573 C93.566,101.573 94.687,101.612 95.8,101.685 C92.107,118.39 92.893,133.871 96.896,148.475 C95.59,131.382 97.763,116.027 104.854,103.133 C115.817,84.61 135.997,72.186 159.081,72.186 C191.81,72.186 218.704,97.156 221.76,129.084 C221.736,128.84 221.712,128.596 221.685,128.352 C216.164,133.036 212.117,138.499 209.915,144.932 C213.354,141.392 217.031,138.011 222.048,135.522 C227.896,132.604 234.49,130.96 241.469,130.96 C247.959,130.96 254.115,132.379 259.648,134.925 C259.498,142.263 260.684,149.051 263.505,155.165 C262.976,149.171 262.87,143.176 263.914,137.182 C272.72,108.074 299.747,86.88 331.729,86.88 C337.403,86.88 342.919,87.548 348.208,88.808 C346.896,100.438 348.149,110.837 353.836,120.236 C352.579,111.422 353.242,101.054 356.378,91.289 C366.827,65.913 391.795,48.047 420.938,48.047 C450.646,48.047 476.014,66.609 486.087,92.768 C461.369,102.193 447.496,122.497 456.364,152.739 C455.376,129.375 468.501,109.532 489.469,104.58 C494.4,103.303 499.571,102.623 504.901,102.623 C510.47,102.623 515.863,103.365 520.989,104.755 C519.835,107.882 520.321,114.287 522.282,118.006 C522.677,114.197 523.611,109.949 525.818,106.28 C534.817,93.291 549.826,84.781 566.824,84.781 C594.357,84.781 616.677,107.1 616.677,134.634 C616.677,145.583 613.145,155.707 607.159,163.931 C603.401,169.095 597.907,171.891 591.521,171.891 L61.946,171.891 C51.535,171.891 42.987,163.646 42.615,153.241 C42.594,152.64 42.582,152.034 42.582,151.426 C42.582,123.893 64.902,101.573 92.436,101.573" fill="#FFFFFE"/>
    <path d="M329.629,600.824 C464.896,600.824 575.221,595.166 575.221,588.23 C575.221,581.292 464.896,575.636 329.629,575.636 C194.363,575.636 84.04,581.292 84.04,588.23 C84.04,595.166 194.363,600.824 329.629,600.824" fill="#277A96"/>
    <path d="M290.273,552.545 L368.986,552.545 L368.986,508.378 L290.273,508.378 z M290.273,502.605 L368.986,502.605 L368.986,458.437 L290.273,458.437 z M290.273,452.665 L368.986,452.665 L368.986,408.498 L290.273,408.498 z M290.273,402.725 L368.986,402.725 L368.986,358.556 L290.273,358.556 z M290.273,352.785 L368.986,352.785 L368.986,308.616 L290.273,308.616 z M290.273,302.844 L368.986,302.844 L368.986,258.676 L290.273,258.676 z M290.273,252.904 L368.986,252.904 L368.986,208.736 L290.273,208.736 z M278.728,169.466 L290.273,169.466 L290.273,202.964 L368.986,202.964 L368.986,169.466 L380.532,169.466 L380.532,589.279 L368.986,589.279 L368.986,558.317 L290.273,558.317 L290.273,589.279 L278.728,589.279 L278.728,169.466" fill="#FFFFFE"/>
    <path d="M265.159,376.836 C262.733,373.371 254.646,387.333 254.139,383.133 C250.762,355.17 270.509,322.615 255.714,298.645 C242.74,309.89 227.732,312.413 212.682,315.963 L200.089,311.764 L212.158,303.893 C227.037,298.888 248.531,305.007 257.813,292.348 C265.174,282.309 243.774,268.741 246.792,256.664 C249.04,247.67 262.351,237.385 270.407,241.971 C278.399,246.519 289.552,270.718 281.654,275.4 C276.84,278.252 284.805,283.714 288.514,280.41 C296.599,274.438 303.252,265.46 308.956,248.879 C330.07,227.212 337.27,259.222 318.141,252.553 C315.715,272.449 306.032,280.099 299.795,289.2 L310.29,296.677 C316.57,308.062 313.852,322.271 326.566,324.989 C339.047,327.658 341.108,315.93 345.449,302.493 C348.341,282.385 364.823,305.544 354.107,302.493 C346.426,321.238 345.283,332.845 329.195,338.672 C317.239,340.782 308.695,337.883 304.517,320.685 C290.092,327.897 297.085,344.832 295.859,361.354 C308.616,352.433 326.3,341.687 341.25,349.548 C349.362,354.997 337.88,381.33 344.925,394.678 C347.702,399.939 363.535,381.863 361.191,387.331 C360.753,400.948 350.252,404.68 341.906,410.377 C340.317,411.461 339.422,403.643 337.709,402.768 C337.379,402.375 335.666,401.371 333.322,402.865 C328.917,394.107 328.741,374.275 330.362,361.354 C322.294,359.892 296.002,373.43 295.596,383.657 C294.626,408.076 312.822,429.399 321.31,452.313 C327.077,467.883 333.99,483.093 338.365,499.105 C338.771,500.598 333.43,502.525 334.953,502.255 C343.188,500.796 363.017,488.05 359.093,495.432 C352.739,507.393 338.688,514.226 326.033,519.047 C322.6,520.355 328.099,511.064 326.033,508.027 C324.851,506.288 322.333,514.447 321.571,512.487 C314.757,494.959 313.836,475.45 306.616,458.087 C294.942,430.013 282.597,401.743 265.159,376.836" fill="#2D2E2C"/>
  </g>
</svg>
